<svg xmlns="http://www.w3.org/2000/svg" xmlns:xlink="http://www.w3.org/1999/xlink" width="340" zoomAndPan="magnify" viewBox="0 0 255 254.999984" height="340" preserveAspectRatio="xMidYMid meet" version="1.0"><defs><clipPath id="7b03bdad29"><rect x="0" width="255" y="0" height="255"/></clipPath></defs><rect x="-25.5" width="306" fill="#ffffff" y="-25.499998" height="305.999981" fill-opacity="1"/><rect x="-25.5" width="306" fill="#ffffff" y="-25.499998" height="305.999981" fill-opacity="1"/><g transform="matrix(1, 0, 0, 1, 0, 0.000000000000009567)"><g clip-path="url(#7b03bdad29)"><path fill="#ffc49c" d="M 136.292969 21.308594 C 135.316406 23.464844 134.074219 25.453125 132.5625 27.273438 L 67.003906 114.125 L 63.382812 111.648438 L 60.15625 109.441406 L 117.035156 17.023438 C 117.996094 14.871094 119.285156 12.925781 120.890625 11.199219 C 120.972656 11.113281 121.054688 11.027344 121.140625 10.941406 C 121.511719 10.53125 121.917969 10.15625 122.359375 9.816406 C 122.796875 9.476562 123.265625 9.179688 123.757812 8.921875 C 124.253906 8.667969 124.765625 8.460938 125.296875 8.296875 C 125.828125 8.132812 126.371094 8.019531 126.921875 7.953125 C 127.472656 7.886719 128.027344 7.871094 128.582031 7.90625 C 129.136719 7.941406 129.683594 8.023438 130.222656 8.15625 C 130.761719 8.289062 131.289062 8.46875 131.792969 8.695312 C 132.300781 8.921875 132.785156 9.191406 133.242188 9.507812 C 133.703125 9.820312 134.128906 10.171875 134.523438 10.5625 C 134.921875 10.953125 135.277344 11.375 135.597656 11.832031 C 135.917969 12.285156 136.191406 12.765625 136.425781 13.269531 C 136.660156 13.777344 136.84375 14.296875 136.984375 14.835938 C 137.121094 15.375 137.210938 15.917969 137.253906 16.472656 C 137.292969 17.027344 137.285156 17.582031 137.226562 18.132812 C 137.167969 18.6875 137.058594 19.230469 136.902344 19.761719 C 136.746094 20.296875 136.542969 20.8125 136.292969 21.308594 Z M 136.292969 21.308594 " fill-opacity="1" fill-rule="nonzero"/><path fill="#e28966" d="M 120.894531 11.199219 C 123.824219 12.945312 126.753906 16.324219 124.0625 22.515625 C 123.582031 23.589844 123 24.609375 122.316406 25.566406 L 75.527344 92.535156 C 75.132812 93.097656 74.839844 93.707031 74.648438 94.367188 C 74.457031 95.027344 74.375 95.699219 74.402344 96.382812 C 74.433594 97.070312 74.570312 97.734375 74.816406 98.371094 C 75.066406 99.011719 75.40625 99.597656 75.847656 100.125 L 76.753906 101.210938 L 67.003906 114.121094 L 63.378906 111.648438 L 59.757812 109.171875 L 116.933594 16.582031 C 118.023438 14.621094 119.34375 12.824219 120.894531 11.199219 Z M 120.894531 11.199219 " fill-opacity="1" fill-rule="nonzero"/><path fill="#f74f73" d="M 212.710938 190.539062 L 210.648438 188.355469 C 210.234375 187.917969 209.78125 187.53125 209.28125 187.191406 C 208.785156 186.851562 208.257812 186.570312 207.699219 186.347656 C 207.140625 186.125 206.5625 185.960938 205.96875 185.863281 C 205.375 185.765625 204.777344 185.730469 204.175781 185.761719 C 203.574219 185.796875 202.984375 185.890625 202.402344 186.050781 C 201.824219 186.210938 201.265625 186.429688 200.734375 186.710938 C 200.203125 186.992188 199.707031 187.328125 199.246094 187.71875 C 198.789062 188.105469 198.375 188.539062 198.007812 189.019531 C 195.480469 192.230469 193.855469 195.847656 193.140625 199.875 L 196.726562 213.726562 C 196.726562 213.726562 202.402344 199.621094 212.710938 190.539062 Z M 212.710938 190.539062 " fill-opacity="1" fill-rule="nonzero"/><path fill="#c12140" d="M 102.71875 130.660156 C 97.949219 127.753906 92.886719 125.515625 87.527344 123.945312 L 87.527344 108.53125 L 105.28125 108.53125 Z M 102.71875 130.660156 " fill-opacity="1" fill-rule="nonzero"/><path fill="#e9ebfc" d="M 123.886719 108.53125 L 102.71875 108.53125 L 102.71875 129.824219 C 113.890625 141.449219 123.800781 154.066406 132.441406 167.679688 L 148.078125 193.980469 L 184.417969 170.898438 L 170.347656 151.015625 C 169.027344 149.148438 168.1875 147.089844 167.832031 144.835938 C 167 139.566406 165.140625 129.007812 162.375 120.339844 Z M 123.886719 108.53125 " fill-opacity="1" fill-rule="nonzero"/><path fill="#acb9d4" d="M 155.1875 118.132812 L 157.46875 127.273438 C 157.824219 128.6875 157.882812 130.113281 157.652344 131.546875 C 157.421875 132.984375 156.917969 134.320312 156.140625 135.550781 L 147 150.03125 C 146.753906 150.417969 146.566406 150.832031 146.441406 151.273438 C 146.3125 151.714844 146.246094 152.167969 146.246094 152.625 C 146.246094 153.085938 146.308594 153.535156 146.433594 153.976562 C 146.558594 154.417969 146.746094 154.835938 146.988281 155.222656 L 159.011719 174.460938 C 159.574219 175.359375 160.320312 176.066406 161.246094 176.578125 C 162.171875 177.09375 163.167969 177.347656 164.226562 177.347656 L 174.300781 177.328125 L 147.507812 194.339844 L 131.9375 168.625 C 123.359375 155.074219 113.621094 142.417969 102.722656 130.660156 L 102.722656 108.53125 L 123.886719 108.53125 Z M 155.1875 118.132812 " fill-opacity="1" fill-rule="nonzero"/><path fill="#ffc4b6" d="M 121.964844 97.769531 L 121.964844 108.625 C 121.957031 109.203125 121.996094 109.78125 122.085938 110.355469 C 122.175781 110.925781 122.308594 111.488281 122.488281 112.039062 C 122.671875 112.59375 122.894531 113.125 123.164062 113.636719 C 123.433594 114.152344 123.742188 114.640625 124.089844 115.105469 C 124.4375 115.566406 124.824219 116 125.242188 116.398438 C 125.664062 116.800781 126.113281 117.164062 126.59375 117.488281 C 127.074219 117.8125 127.578125 118.097656 128.105469 118.339844 C 128.632812 118.585938 129.175781 118.78125 129.734375 118.9375 C 130.457031 119.121094 131.191406 119.238281 131.933594 119.289062 L 140.578125 113.113281 L 140.597656 97.769531 Z M 121.964844 97.769531 " fill-opacity="1" fill-rule="nonzero"/><path fill="#ffc4b6" d="M 68.230469 131.074219 C 83.109375 139.890625 103.949219 140.574219 103.949219 140.574219 L 119.515625 127.125 L 136.730469 142.824219 C 128.472656 150.464844 118.792969 156.199219 112.207031 160.203125 C 110.929688 161.007812 109.570312 161.644531 108.136719 162.113281 C 106.699219 162.582031 105.230469 162.867188 103.722656 162.96875 C 102.214844 163.070312 100.71875 162.988281 99.234375 162.71875 C 97.746094 162.449219 96.316406 162 94.941406 161.375 C 73.539062 151.757812 63.949219 142.230469 63.949219 142.230469 L 65.160156 138.40625 Z M 68.230469 131.074219 " fill-opacity="1" fill-rule="nonzero"/><path fill="#ea8b7f" d="M 65.15625 138.40625 C 66.382812 139.441406 67.640625 140.433594 68.964844 141.347656 C 75.9375 146.152344 90.324219 155.710938 95.53125 156.542969 C 95.882812 156.597656 96.230469 156.648438 96.574219 156.6875 C 99.929688 157.074219 103.238281 156.832031 106.5 155.960938 L 107.113281 162.960938 C 105.070312 163.453125 103.003906 163.601562 100.910156 163.40625 C 98.816406 163.214844 96.8125 162.6875 94.894531 161.828125 C 73.492188 152.210938 63.460938 142.460938 63.460938 142.460938 Z M 65.15625 138.40625 " fill-opacity="1" fill-rule="nonzero"/><path fill="#f74f73" d="M 136.730469 142.828125 C 128.476562 150.46875 119.089844 156.386719 112.5 160.390625 C 109.867188 161.96875 107.015625 162.84375 103.949219 163.015625 L 103.949219 140.574219 L 119.515625 127.125 Z M 136.730469 142.828125 " fill-opacity="1" fill-rule="nonzero"/><path fill="#ea8b7f" d="M 87.527344 123.945312 L 68.183594 118.933594 L 68.183594 108.53125 L 87.527344 108.53125 Z M 87.527344 123.945312 " fill-opacity="1" fill-rule="nonzero"/><path fill="#ffc4b6" d="M 68.644531 98.710938 C 69.410156 99.074219 70.996094 99.753906 70.996094 99.753906 C 71.464844 100.078125 71.917969 100.429688 72.347656 100.804688 C 72.710938 101.132812 73.046875 101.492188 73.347656 101.882812 C 73.652344 102.269531 73.921875 102.683594 74.152344 103.117188 C 74.382812 103.550781 74.574219 104.003906 74.730469 104.472656 C 74.882812 104.941406 74.992188 105.417969 75.0625 105.90625 C 75.132812 106.394531 75.160156 106.882812 75.144531 107.375 C 75.128906 107.867188 75.070312 108.355469 74.96875 108.839844 C 74.871094 109.320312 74.730469 109.792969 74.546875 110.25 C 74.363281 110.707031 74.144531 111.144531 73.886719 111.566406 L 69.933594 118.082031 C 69.660156 118.535156 69.347656 118.957031 68.996094 119.351562 C 68.644531 119.75 68.261719 120.109375 67.84375 120.433594 C 67.425781 120.757812 66.984375 121.042969 66.515625 121.285156 C 66.046875 121.53125 65.558594 121.730469 65.054688 121.882812 C 64.546875 122.039062 64.03125 122.144531 63.507812 122.207031 C 62.980469 122.265625 62.457031 122.28125 61.929688 122.246094 C 61.398438 122.207031 60.878906 122.125 60.367188 121.996094 C 59.855469 121.863281 59.359375 121.6875 58.878906 121.46875 L 49.316406 117.058594 L 60.148438 101.136719 C 60.367188 100.792969 60.609375 100.476562 60.886719 100.179688 C 61.160156 99.882812 61.457031 99.613281 61.78125 99.371094 C 62.105469 99.128906 62.449219 98.917969 62.808594 98.738281 C 63.171875 98.558594 63.546875 98.414062 63.933594 98.300781 C 64.324219 98.191406 64.71875 98.117188 65.121094 98.078125 C 65.523438 98.039062 65.925781 98.039062 66.328125 98.074219 C 66.730469 98.105469 67.125 98.179688 67.515625 98.285156 C 67.90625 98.394531 68.28125 98.535156 68.644531 98.710938 Z M 68.644531 98.710938 " fill-opacity="1" fill-rule="nonzero"/><path fill="#e9ebfc" d="M 184.417969 170.898438 C 186.988281 173.507812 189.199219 176.390625 191.050781 179.550781 C 192.472656 181.933594 193.691406 184.421875 194.703125 187.007812 C 195.714844 189.59375 196.503906 192.246094 197.078125 194.964844 C 197.652344 197.683594 197.996094 200.429688 198.113281 203.203125 C 198.234375 205.976562 198.121094 208.742188 197.78125 211.5 C 196.765625 220.152344 194.394531 234.414062 189.082031 247.125 L 159.058594 247.125 L 160.152344 226.9375 L 125.527344 247.125 L 96.816406 247.125 L 97.800781 244.753906 C 98.273438 242.828125 99.011719 241.007812 100.023438 239.300781 C 101.035156 237.589844 102.269531 236.066406 103.734375 234.722656 L 149.152344 193.679688 Z M 184.417969 170.898438 " fill-opacity="1" fill-rule="nonzero"/><path fill="#acb9d4" d="M 172.816406 154.5 L 170.539062 162.59375 C 170.460938 162.871094 170.304688 163.085938 170.0625 163.246094 C 169.824219 163.40625 169.5625 163.46875 169.277344 163.429688 C 168.992188 163.394531 168.75 163.269531 168.558594 163.058594 C 168.367188 162.84375 168.265625 162.59375 168.257812 162.308594 L 167.832031 144.832031 C 168.1875 147.085938 169.027344 149.148438 170.347656 151.011719 Z M 172.816406 154.5 " fill-opacity="1" fill-rule="nonzero"/><path fill="#acb9d4" d="M 96.402344 247.125 L 97.085938 244.675781 C 97.640625 242.675781 98.464844 240.792969 99.554688 239.027344 C 100.644531 237.257812 101.957031 235.679688 103.496094 234.28125 L 136.8125 204.046875 L 147.507812 194.339844 L 169.636719 180.285156 L 184.417969 170.898438 C 185.945312 172.425781 187.332031 174.066406 188.578125 175.828125 L 170.972656 188.214844 C 170.105469 188.824219 169.34375 189.550781 168.699219 190.394531 C 168.050781 191.238281 167.546875 192.160156 167.1875 193.160156 C 166.824219 194.160156 166.621094 195.191406 166.578125 196.253906 C 166.535156 197.316406 166.652344 198.359375 166.929688 199.386719 C 167.199219 200.355469 167.496094 201.386719 167.832031 202.480469 C 172.152344 216.578125 170.507812 240.203125 169.902344 247.128906 L 159.054688 247.128906 L 160.152344 226.941406 L 125.527344 247.125 Z M 96.402344 247.125 " fill-opacity="1" fill-rule="nonzero"/><path fill="#acb9d4" d="M 177.984375 179.363281 L 180.339844 177.925781 C 180.339844 177.925781 197.339844 199.164062 181.777344 247.128906 L 177.984375 247.128906 C 177.984375 247.128906 192.371094 207.085938 177.984375 179.363281 Z M 177.984375 179.363281 " fill-opacity="1" fill-rule="nonzero"/><path fill="#ea8b7f" d="M 135.28125 115.429688 C 135.730469 115.550781 136.144531 115.746094 136.527344 116.011719 L 131.933594 119.289062 C 131.273438 119.242188 130.621094 119.144531 129.976562 118.996094 C 129.40625 118.851562 128.847656 118.664062 128.308594 118.425781 C 127.765625 118.191406 127.25 117.910156 126.753906 117.585938 C 126.261719 117.265625 125.796875 116.902344 125.363281 116.503906 C 124.929688 116.101562 124.53125 115.667969 124.171875 115.203125 C 123.808594 114.734375 123.488281 114.242188 123.210938 113.71875 C 122.933594 113.199219 122.699219 112.660156 122.511719 112.097656 C 122.324219 111.539062 122.183594 110.96875 122.09375 110.386719 C 122 109.800781 121.957031 109.214844 121.964844 108.625 L 121.964844 97.769531 L 140.597656 97.769531 L 140.585938 107.003906 C 138.140625 108.234375 134.292969 108.855469 129.492188 108.375 C 129.402344 108.363281 129.316406 108.367188 129.226562 108.378906 C 129.140625 108.394531 129.054688 108.417969 128.976562 108.457031 C 128.894531 108.492188 128.820312 108.535156 128.75 108.59375 C 128.679688 108.648438 128.621094 108.710938 128.570312 108.785156 C 128.515625 108.855469 128.472656 108.933594 128.441406 109.015625 C 128.410156 109.097656 128.390625 109.183594 128.378906 109.273438 C 128.371094 109.359375 128.371094 109.449219 128.386719 109.535156 C 128.398438 109.625 128.425781 109.707031 128.460938 109.789062 C 129.101562 111.207031 130.019531 112.410156 131.21875 113.398438 C 132.414062 114.390625 133.769531 115.066406 135.28125 115.429688 Z M 135.28125 115.429688 " fill-opacity="1" fill-rule="nonzero"/><path fill="#383a3d" d="M 104.882812 76.53125 C 104.882812 76.53125 104.6875 89.28125 109.472656 93.210938 L 127.59375 93.210938 L 129.914062 70.683594 Z M 104.882812 76.53125 " fill-opacity="1" fill-rule="nonzero"/><path fill="#ffc4b6" d="M 151.90625 73.378906 L 151.90625 87.644531 C 151.90625 88.203125 151.878906 88.761719 151.824219 89.316406 C 151.769531 89.875 151.6875 90.425781 151.578125 90.976562 C 151.46875 91.523438 151.332031 92.066406 151.171875 92.601562 C 151.007812 93.136719 150.820312 93.660156 150.605469 94.179688 C 150.394531 94.695312 150.152344 95.199219 149.890625 95.691406 C 149.628906 96.183594 149.339844 96.664062 149.03125 97.128906 C 148.71875 97.59375 148.386719 98.042969 148.03125 98.476562 C 147.675781 98.90625 147.300781 99.320312 146.90625 99.714844 C 146.511719 100.113281 146.097656 100.488281 145.664062 100.839844 C 145.234375 101.195312 144.785156 101.527344 144.320312 101.839844 C 143.855469 102.148438 143.375 102.4375 142.882812 102.699219 C 142.390625 102.964844 141.882812 103.203125 141.367188 103.417969 C 140.851562 103.632812 140.324219 103.820312 139.789062 103.980469 C 139.253906 104.144531 138.714844 104.28125 138.164062 104.386719 C 137.617188 104.496094 137.066406 104.578125 136.507812 104.632812 C 135.953125 104.6875 135.394531 104.714844 134.835938 104.714844 L 131.289062 104.714844 C 131.289062 104.714844 122.214844 104.550781 118.753906 98.777344 C 118.753906 98.777344 109.515625 99.769531 108.03125 92.179688 C 108.03125 92.179688 107.105469 87.542969 110.59375 86.140625 C 111.4375 85.800781 112.308594 85.691406 113.210938 85.800781 C 114.113281 85.914062 114.929688 86.238281 115.664062 86.777344 C 116.472656 87.390625 117.121094 88.148438 117.597656 89.042969 C 117.597656 89.042969 125.1875 85.910156 126.011719 74.035156 Z M 151.90625 73.378906 " fill-opacity="1" fill-rule="nonzero"/><path fill="#ea8b7f" d="M 151.90625 81.949219 L 124.101562 81.949219 C 125.222656 79.429688 125.859375 76.792969 126.011719 74.039062 L 151.90625 73.378906 Z M 151.90625 81.949219 " fill-opacity="1" fill-rule="nonzero"/><path fill="#c12140" d="M 114.132812 152.699219 C 115.875 151.640625 117.859375 150.40625 119.722656 149.183594 C 120.097656 148.9375 120.445312 148.660156 120.769531 148.351562 C 121.097656 148.042969 121.390625 147.707031 121.652344 147.34375 C 121.914062 146.980469 122.140625 146.59375 122.332031 146.1875 C 122.523438 145.78125 122.675781 145.363281 122.789062 144.929688 C 122.90625 144.496094 122.976562 144.054688 123.011719 143.609375 C 123.042969 143.160156 123.035156 142.714844 122.984375 142.269531 C 122.933594 141.824219 122.84375 141.386719 122.714844 140.957031 C 122.582031 140.527344 122.414062 140.113281 122.207031 139.714844 L 116.847656 129.433594 L 119.515625 127.128906 L 136.730469 142.828125 C 129.25 149.574219 121.191406 155.539062 112.550781 160.71875 C 109.90625 162.328125 107.039062 163.234375 103.949219 163.445312 L 103.949219 156.503906 C 107.589844 155.894531 110.984375 154.625 114.132812 152.699219 Z M 114.132812 152.699219 " fill-opacity="1" fill-rule="nonzero"/><path fill="#f74f73" d="M 172.039062 76.53125 L 104.882812 76.53125 C 104.882812 76.53125 102.976562 40.925781 130.695312 40.925781 C 130.695312 40.925781 154.59375 39.492188 157.460938 66.734375 L 164.984375 68.089844 C 165.476562 68.179688 165.953125 68.308594 166.421875 68.480469 C 166.890625 68.65625 167.339844 68.867188 167.773438 69.117188 C 168.203125 69.367188 168.609375 69.652344 168.992188 69.976562 C 169.371094 70.296875 169.722656 70.648438 170.042969 71.03125 C 170.363281 71.414062 170.648438 71.824219 170.898438 72.253906 C 171.144531 72.6875 171.355469 73.136719 171.523438 73.605469 C 171.695312 74.074219 171.824219 74.554688 171.910156 75.046875 C 171.996094 75.539062 172.039062 76.035156 172.039062 76.53125 Z M 172.039062 76.53125 " fill-opacity="1" fill-rule="nonzero"/><path fill="#ea8b7f" d="M 144.785156 89.339844 C 144.996094 89.339844 145.207031 89.3125 145.410156 89.253906 L 147.367188 88.6875 C 147.65625 88.605469 147.914062 88.46875 148.148438 88.285156 C 148.378906 88.097656 148.570312 87.875 148.710938 87.613281 C 148.855469 87.351562 148.945312 87.074219 148.980469 86.777344 C 149.011719 86.480469 148.988281 86.191406 148.90625 85.902344 C 148.820312 85.617188 148.6875 85.359375 148.503906 85.125 C 148.316406 84.890625 148.09375 84.703125 147.832031 84.558594 C 147.570312 84.414062 147.292969 84.324219 146.996094 84.292969 C 146.699219 84.257812 146.410156 84.28125 146.121094 84.363281 L 144.164062 84.929688 C 143.902344 85.003906 143.664062 85.121094 143.445312 85.285156 C 143.226562 85.445312 143.042969 85.640625 142.898438 85.867188 C 142.75 86.09375 142.648438 86.339844 142.589844 86.605469 C 142.53125 86.871094 142.519531 87.136719 142.558594 87.40625 C 142.59375 87.675781 142.679688 87.925781 142.808594 88.164062 C 142.9375 88.402344 143.105469 88.613281 143.308594 88.789062 C 143.515625 88.96875 143.742188 89.105469 143.996094 89.199219 C 144.25 89.292969 144.515625 89.339844 144.785156 89.339844 Z M 144.785156 89.339844 " fill-opacity="1" fill-rule="nonzero"/><path fill="#ea8b7f" d="M 136.730469 89.367188 C 137.003906 89.367188 137.265625 89.320312 137.519531 89.226562 C 137.773438 89.128906 138 88.996094 138.207031 88.816406 C 138.410156 88.640625 138.578125 88.433594 138.707031 88.195312 C 138.839844 87.960938 138.921875 87.707031 138.960938 87.4375 C 139 87.171875 138.992188 86.90625 138.933594 86.640625 C 138.878906 86.375 138.777344 86.128906 138.628906 85.902344 C 138.484375 85.675781 138.304688 85.480469 138.085938 85.316406 C 137.871094 85.152344 137.632812 85.035156 137.371094 84.957031 L 135.089844 84.277344 C 134.804688 84.195312 134.511719 84.167969 134.214844 84.199219 C 133.921875 84.230469 133.640625 84.316406 133.378906 84.457031 C 133.117188 84.601562 132.890625 84.785156 132.703125 85.019531 C 132.515625 85.25 132.378906 85.507812 132.292969 85.792969 C 132.210938 86.078125 132.183594 86.371094 132.214844 86.667969 C 132.242188 86.964844 132.332031 87.242188 132.472656 87.503906 C 132.613281 87.769531 132.800781 87.992188 133.03125 88.179688 C 133.261719 88.371094 133.519531 88.507812 133.808594 88.589844 L 136.089844 89.269531 C 136.300781 89.332031 136.511719 89.367188 136.730469 89.367188 Z M 136.730469 89.367188 " fill-opacity="1" fill-rule="nonzero"/><path fill="#e9ebfc" d="M 138.964844 110.324219 L 119.515625 127.125 L 138.449219 151.433594 L 158.578125 131.695312 C 165.15625 125.238281 164.28125 114.230469 156.5625 109.195312 C 156.261719 108.996094 155.949219 108.804688 155.625 108.621094 C 154.976562 108.253906 154.304688 107.941406 153.605469 107.675781 C 152.90625 107.414062 152.195312 107.207031 151.464844 107.054688 C 150.734375 106.902344 149.996094 106.808594 149.253906 106.769531 C 148.507812 106.730469 147.765625 106.75 147.023438 106.824219 C 146.28125 106.902344 145.550781 107.03125 144.828125 107.222656 C 144.109375 107.410156 143.40625 107.652344 142.722656 107.949219 C 142.039062 108.246094 141.382812 108.59375 140.75 108.992188 C 140.121094 109.390625 139.527344 109.835938 138.964844 110.324219 Z M 138.964844 110.324219 " fill-opacity="1" fill-rule="nonzero"/><path fill="#ea8b7f" d="M 68.691406 98.429688 C 69.492188 98.8125 70.257812 99.257812 70.988281 99.761719 C 69.402344 100.152344 67.128906 101.335938 65.066406 104.714844 C 63.53125 107.230469 62.351562 109.019531 61.496094 110.253906 C 61.300781 110.53125 61.164062 110.839844 61.089844 111.175781 C 61.015625 111.511719 61.011719 111.847656 61.074219 112.183594 C 61.136719 112.519531 61.261719 112.832031 61.449219 113.117188 C 61.636719 113.40625 61.871094 113.644531 62.15625 113.835938 C 64.671875 115.527344 66.5 117.777344 67.636719 120.585938 C 67.011719 121.042969 66.339844 121.410156 65.617188 121.6875 C 64.894531 121.964844 64.148438 122.144531 63.378906 122.222656 C 62.609375 122.296875 61.839844 122.273438 61.078125 122.144531 C 60.316406 122.019531 59.582031 121.792969 58.878906 121.46875 L 48.8125 117.707031 L 60.015625 100.890625 C 60.242188 100.546875 60.496094 100.222656 60.777344 99.925781 C 61.058594 99.628906 61.367188 99.355469 61.699219 99.113281 C 62.027344 98.871094 62.378906 98.660156 62.75 98.476562 C 63.117188 98.296875 63.5 98.152344 63.894531 98.039062 C 64.289062 97.925781 64.691406 97.851562 65.101562 97.8125 C 65.511719 97.769531 65.917969 97.765625 66.328125 97.800781 C 66.738281 97.835938 67.140625 97.902344 67.539062 98.007812 C 67.9375 98.113281 68.320312 98.253906 68.691406 98.429688 Z M 68.691406 98.429688 " fill-opacity="1" fill-rule="nonzero"/><path fill="#ffc4b6" d="M 68.230469 131.074219 C 67.558594 128.28125 66.429688 125.6875 64.839844 123.292969 C 63.253906 120.898438 61.300781 118.851562 58.988281 117.144531 C 58.300781 116.632812 57.550781 116.242188 56.734375 115.976562 C 56.734375 115.976562 49.988281 115.992188 47.972656 118.976562 L 43.675781 124.5 C 42.464844 126.492188 42.230469 128.222656 43.160156 130.242188 C 43.523438 131.019531 44.035156 131.6875 44.695312 132.234375 C 45.355469 132.785156 46.097656 133.171875 46.929688 133.386719 C 50.230469 134.320312 56.214844 136.6875 63.550781 142.230469 Z M 68.230469 131.074219 " fill-opacity="1" fill-rule="nonzero"/><path fill="#ea8b7f" d="M 47.847656 118.742188 C 48.355469 118.085938 48.953125 117.519531 49.636719 117.046875 C 50.320312 116.570312 51.058594 116.210938 51.855469 115.964844 C 52.648438 115.71875 53.460938 115.597656 54.292969 115.601562 C 55.125 115.601562 55.9375 115.730469 56.730469 115.984375 L 50.28125 125.957031 C 50.171875 126.316406 50.121094 126.683594 50.128906 127.054688 C 50.136719 127.429688 50.203125 127.792969 50.328125 128.144531 C 50.457031 128.5 50.632812 128.824219 50.863281 129.117188 C 51.09375 129.410156 51.367188 129.664062 51.675781 129.871094 C 51.675781 129.871094 58.492188 132.476562 63.203125 136.710938 C 63.84375 137.289062 64.492188 137.855469 65.152344 138.410156 L 63.453125 142.460938 C 56.113281 136.910156 49.933594 134.589844 46.632812 133.660156 C 46.398438 133.59375 46.167969 133.511719 45.945312 133.417969 C 45.71875 133.324219 45.5 133.21875 45.289062 133.097656 C 45.078125 132.976562 44.875 132.84375 44.679688 132.699219 C 44.484375 132.550781 44.300781 132.394531 44.125 132.226562 C 43.949219 132.058594 43.785156 131.878906 43.628906 131.691406 C 43.476562 131.503906 43.335938 131.308594 43.203125 131.101562 C 43.074219 130.894531 42.957031 130.683594 42.855469 130.460938 C 42.75 130.242188 42.660156 130.015625 42.585938 129.785156 C 42.507812 129.554688 42.449219 129.320312 42.398438 129.082031 C 42.351562 128.84375 42.320312 128.601562 42.304688 128.359375 C 42.285156 128.117188 42.28125 127.875 42.292969 127.632812 C 42.304688 127.386719 42.332031 127.148438 42.375 126.90625 C 42.417969 126.667969 42.472656 126.429688 42.542969 126.199219 C 42.613281 125.964844 42.699219 125.738281 42.796875 125.515625 C 42.894531 125.292969 43.007812 125.078125 43.132812 124.867188 C 43.257812 124.660156 43.394531 124.460938 43.542969 124.265625 Z M 47.847656 118.742188 " fill-opacity="1" fill-rule="nonzero"/><path fill="#ea8b7f" d="M 116.632812 94.449219 C 116.3125 92.148438 115.34375 90.15625 113.730469 88.480469 C 113.546875 88.308594 113.332031 88.171875 113.097656 88.074219 C 112.859375 87.972656 112.613281 87.921875 112.355469 87.914062 C 112.101562 87.90625 111.851562 87.941406 111.609375 88.023438 C 111.363281 88.105469 111.144531 88.230469 110.945312 88.390625 L 110.917969 88.417969 C 110.753906 88.558594 110.605469 88.714844 110.46875 88.882812 C 110.375 88.996094 110.371094 89.113281 110.457031 89.230469 C 110.539062 89.347656 110.648438 89.382812 110.785156 89.335938 C 111.625 89.042969 112.996094 88.9375 113.875 90.777344 C 113.914062 90.855469 113.933594 90.9375 113.929688 91.023438 C 113.929688 91.109375 113.910156 91.1875 113.875 91.265625 C 113.835938 91.339844 113.78125 91.40625 113.714844 91.457031 C 113.644531 91.507812 113.570312 91.542969 113.484375 91.558594 C 113.101562 91.605469 112.773438 91.769531 112.5 92.050781 C 112.230469 92.332031 112.082031 92.664062 112.050781 93.054688 C 111.972656 93.769531 112.167969 94.40625 112.632812 94.957031 C 113.0625 95.496094 113.582031 95.933594 114.1875 96.269531 C 114.476562 96.414062 114.78125 96.472656 115.101562 96.445312 C 115.421875 96.417969 115.714844 96.304688 115.972656 96.113281 C 116.230469 95.921875 116.421875 95.675781 116.539062 95.375 C 116.660156 95.074219 116.691406 94.765625 116.632812 94.449219 Z M 116.632812 94.449219 " fill-opacity="1" fill-rule="nonzero"/><path fill="#c12140" d="M 147.976562 56.152344 C 147.664062 56.171875 147.359375 56.226562 147.054688 56.316406 C 146.753906 56.410156 146.464844 56.535156 146.183594 56.691406 C 145.90625 56.847656 145.640625 57.039062 145.394531 57.257812 C 145.148438 57.476562 144.921875 57.722656 144.71875 57.992188 C 144.515625 58.265625 144.335938 58.554688 144.183594 58.871094 C 144.027344 59.183594 143.902344 59.511719 143.804688 59.855469 C 143.707031 60.199219 143.640625 60.550781 143.601562 60.910156 C 143.566406 61.273438 143.558594 61.632812 143.582031 61.996094 C 143.605469 62.359375 143.660156 62.71875 143.742188 63.070312 C 143.828125 63.421875 143.941406 63.765625 144.082031 64.09375 C 144.222656 64.417969 144.390625 64.730469 144.585938 65.019531 C 144.777344 65.3125 144.992188 65.578125 145.230469 65.820312 C 145.46875 66.0625 145.722656 66.277344 145.996094 66.460938 C 146.269531 66.644531 146.554688 66.800781 146.851562 66.917969 C 147.148438 67.039062 147.453125 67.125 147.765625 67.175781 C 148.078125 67.226562 148.386719 67.242188 148.699219 67.222656 C 149.011719 67.199219 149.320312 67.144531 149.621094 67.054688 C 149.921875 66.964844 150.214844 66.839844 150.492188 66.679688 C 150.773438 66.523438 151.035156 66.335938 151.28125 66.117188 C 151.53125 65.898438 151.753906 65.652344 151.957031 65.378906 C 152.164062 65.109375 152.34375 64.816406 152.496094 64.503906 C 152.648438 64.1875 152.773438 63.859375 152.871094 63.515625 C 152.96875 63.171875 153.039062 62.820312 153.074219 62.460938 C 153.113281 62.101562 153.121094 61.738281 153.097656 61.375 C 153.074219 61.011719 153.019531 60.652344 152.933594 60.300781 C 152.851562 59.949219 152.738281 59.609375 152.597656 59.28125 C 152.453125 58.953125 152.285156 58.644531 152.09375 58.351562 C 151.898438 58.0625 151.683594 57.796875 151.445312 57.550781 C 151.210938 57.308594 150.953125 57.097656 150.679688 56.910156 C 150.40625 56.726562 150.121094 56.574219 149.824219 56.453125 C 149.527344 56.332031 149.222656 56.246094 148.910156 56.195312 C 148.601562 56.144531 148.289062 56.128906 147.976562 56.152344 Z M 147.976562 56.152344 " fill-opacity="1" fill-rule="nonzero"/></g></g></svg>